<svg xmlns="http://www.w3.org/2000/svg" viewBox="0 0 82 82"><defs><style>.cls-1,.cls-2{fill:#fff;}.cls-1{opacity:0;}</style></defs><g id="レイヤー_2" data-name="レイヤー 2"><g id="guide"><rect class="cls-1" width="82" height="82"/><polygon class="cls-2" points="46.17 41.16 56.86 47.92 56.86 34.12 46.17 41.16"/><polygon class="cls-2" points="25.14 34.12 25.14 47.92 35.83 41.16 25.14 34.12"/><path class="cls-2" d="M54.88,30.09H27.12a2,2,0,0,0-1.92,1.69L41,42.19,56.8,31.78A2,2,0,0,0,54.88,30.09Z"/><path class="cls-2" d="M44.35,42.36l-2.8,1.85a1,1,0,0,1-1.1,0l-2.8-1.85L25.2,50.23a2,2,0,0,0,1.92,1.68H54.88a2,2,0,0,0,1.92-1.68Z"/></g></g></svg>