<svg xmlns="http://www.w3.org/2000/svg" viewBox="0 0 102 102"><defs><style>.cls-1{fill:#fff;}.cls-2{fill:#ffcaca;opacity:0;}</style></defs><g id="レイヤー_2" data-name="レイヤー 2"><g id="img"><g id="icon-youtube"><path class="cls-1" d="M59.75,48.67,44.87,40.53a2.73,2.73,0,0,0-4,2.4V59.07a2.71,2.71,0,0,0,1.33,2.35,2.75,2.75,0,0,0,1.41.39,2.72,2.72,0,0,0,1.29-.33l14.89-8a2.77,2.77,0,0,0,1.44-2.4A2.73,2.73,0,0,0,59.75,48.67ZM44.77,57V45L55.9,51.06Z"/><path class="cls-1" d="M84.19,37.53v0c-.06-.54-.63-5.37-3-7.82A11,11,0,0,0,74,26.27l-.34,0h-.11c-8.91-.65-22.36-.74-22.5-.74h0c-.14,0-13.59.09-22.58.74h-.12l-.31,0a10.7,10.7,0,0,0-7.22,3.51c-2.23,2.43-2.88,7.15-3,7.68v.07c0,.22-.5,5.6-.5,11v5c0,5.39.48,10.77.5,11v0c.06.53.62,5.27,3,7.72a11.2,11.2,0,0,0,7.5,3.36l.67.08.16,0c5.14.49,21.27.73,21.95.74h0c.14,0,13.59-.09,22.5-.74h.11l.38,0a10.4,10.4,0,0,0,7.16-3.42c2.23-2.43,2.88-7.15,3-7.68v-.07c0-.22.5-5.6.5-11v-5C84.69,43.13,84.21,37.75,84.19,37.53Zm-3.45,16c0,5-.44,10.13-.48,10.61-.16,1.3-.85,4.28-1.93,5.47a6.56,6.56,0,0,1-4.66,2.16l-.42,0c-8.62.62-21.56.71-22.16.72s-16.56-.26-21.54-.72l-.83-.1a7.45,7.45,0,0,1-5-2.11l0,0c-1.07-1.12-1.73-3.91-1.9-5.42,0-.35-.48-5.56-.48-10.62v-5c0-5,.43-10.12.48-10.6.2-1.54.89-4.34,1.93-5.47a6.81,6.81,0,0,1,4.76-2.26l.32,0c8.74-.62,21.78-.71,22.25-.72s13.5.1,22.16.72l.35.05a7,7,0,0,1,4.84,2.19h0c1.07,1.12,1.73,4,1.9,5.5,0,.33.48,5.55.48,10.62Z"/><rect class="cls-2" width="102" height="102"/></g></g></g></svg>