<svg xmlns="http://www.w3.org/2000/svg" viewBox="0 0 102 102"><defs><style>.cls-1{fill:#fff;}.cls-2{fill:#ffcaca;opacity:0;}</style></defs><g id="レイヤー_2" data-name="レイヤー 2"><g id="img"><g id="twitter"><path class="cls-1" d="M20.51,71.09a36.85,36.85,0,0,0,19.78,5.7A36.18,36.18,0,0,0,77,40c2.49-2.14,5.42-6.21,5.42-10.17a2,2,0,0,0-3-1.72,8.17,8.17,0,0,1-6.67,1.12A14.17,14.17,0,0,0,56,27a13.64,13.64,0,0,0-7.4,12.78A32.87,32.87,0,0,1,27.25,28.11a2,2,0,0,0-3.25.27A13.83,13.83,0,0,0,23.69,42,2.07,2.07,0,0,0,22,44.09a14,14,0,0,0,4.87,10.57,2,2,0,0,0-.5,2.05,14.25,14.25,0,0,0,8.06,8.64,23.16,23.16,0,0,1-12.58,2.1,2,2,0,0,0-1.31,3.64ZM40.83,66a2,2,0,0,0-1.16-3.56,10.34,10.34,0,0,1-8.13-4.23,13.3,13.3,0,0,0,2.71-.43A2,2,0,0,0,34.12,54,10.18,10.18,0,0,1,26.41,47a13.46,13.46,0,0,0,3,.4,2,2,0,0,0,1.13-3.64A9.86,9.86,0,0,1,26.34,33,36.91,36.91,0,0,0,50.77,43.93a2,2,0,0,0,2-2.43,9.69,9.69,0,0,1,5.05-11,10.15,10.15,0,0,1,12.41,1.88c1.18,1.25,5.17,1.3,7.2.82a12.79,12.79,0,0,1-3.62,4.26A2,2,0,0,0,73,39.16a32.21,32.21,0,0,1-32.7,33.66A33.45,33.45,0,0,1,29.6,71.07a26.86,26.86,0,0,0,11.23-5Z"/><rect class="cls-2" width="102" height="102"/></g></g></g></svg>