<svg xmlns="http://www.w3.org/2000/svg" viewBox="0 0 102 102"><defs><style>.cls-1{fill:#fff;}.cls-2{fill:#ffcaca;opacity:0;}</style></defs><g id="レイヤー_2" data-name="レイヤー 2"><g id="img"><g id="twitch"><path class="cls-1" d="M59.41,36.28h4.21V48.9H59.41Z"/><path class="cls-1" d="M50,36.28h4.2V48.9H50Z"/><path class="cls-1" d="M34.35,25.76h-.18v.18l-8.41,8.41V69.93h8.41v6.31h15.6l7.36-7.36H70.8l5.44-5.44V25.76ZM72,61.7l-3,3H55.39L48,72H38.38V65.72H30V36.1l4.2-4.21V59.41h8.42v8.42h4L55,59.41H68.7L72,56.08ZM72,30V50.13L67,55.21H53.28L46.79,61.7V55.21H38.38V30Z"/><rect class="cls-2" width="102" height="102"/></g></g></g></svg>